<?xml version="1.0" encoding="utf-8"?>
<!DOCTYPE svg PUBLIC "-//W3C//DTD SVG 1.0//EN" "http://www.w3.org/TR/2001/REC-SVG-20010904/DTD/svg10.dtd">
<svg version="1.0" xmlns="http://www.w3.org/2000/svg" width="1024px" height="1024px" viewBox="0 0 1024 1024" preserveAspectRatio="xMidYMid meet">
 <g fill="#e33733">
  <path d="M718.50 873.15 c-14.80 -2.25 -24.45 -12.80 -25.65 -27.95 l-0.25 -3.05 6.60 -0.55 c3.60 -0.35 7.95 -0.60 9.70 -0.60 l3.10 0 0 1.75 c0 2.90 1.95 7.30 4.20 9.50 3.40 3.30 8.90 4.55 13.55 3.10 6.25 -1.95 8.75 -5.30 8.75 -11.70 0 -4.10 -1.25 -6.90 -4.15 -9.45 -1.15 -0.95 -6.05 -3.95 -10.85 -6.60 -19.35 -10.60 -24.75 -15.60 -27.70 -25.55 -1.10 -3.65 -1.10 -14.70 -0.05 -18.80 2.75 -10.60 9.90 -17.55 20.85 -20.30 6.10 -1.55 15.65 -1.45 21.25 0.20 10.15 2.95 16.55 10.15 18.40 20.70 1.20 6.55 2.10 5.85 -8.25 6.60 -4.90 0.35 -9.15 0.50 -9.40 0.35 -0.25 -0.15 -0.60 -1.20 -0.75 -2.30 -0.65 -5 -5.20 -8.50 -10.95 -8.50 -7.20 0.05 -11.95 4.45 -12.10 11.20 -0.10 5.70 2.90 8.85 14.90 15.60 18.20 10.25 22 13.15 25.05 19.40 4.55 9.25 4.40 23.50 -0.40 32.55 -3.50 6.55 -11.85 12.30 -20.45 14 -3.50 0.70 -12.15 0.90 -15.40 0.40z"/>
  <path d="M139.50 817.35 l0 -54.10 10 0.15 10 0.15 0 44.70 0 44.75 16.55 0.10 16.50 0.15 0 9 0 9 -26.55 0.10 -26.50 0.10 0 -54.10z"/>
  <path d="M202 871.05 c0 -0.25 1.55 -6.25 3.45 -13.40 1.95 -7.10 5.75 -21.35 8.50 -31.65 2.75 -10.30 6.60 -24.70 8.55 -32 1.90 -7.30 4.40 -16.50 5.45 -20.50 1.05 -4 2.10 -7.85 2.25 -8.60 l0.30 -1.40 11.45 0 11.45 0 0.35 1.65 c0.20 0.85 0.75 3.05 1.25 4.85 0.45 1.80 1.35 5.05 1.95 7.25 1.05 4.05 24.95 91.80 25.40 93.40 0.25 0.80 -0.45 0.85 -10.30 0.85 -8.05 0 -10.60 -0.15 -10.75 -0.60 -0.10 -0.35 -1.20 -4.80 -2.45 -9.90 l-2.25 -9.25 -14.75 -0.15 -14.70 -0.10 -2.45 9.85 -2.45 9.90 -10.10 0.15 c-6.05 0.05 -10.15 -0.05 -10.15 -0.35z m50.15 -37.40 c0.15 -0.25 -1.65 -8.05 -3.95 -17.40 -2.30 -9.35 -4.55 -19.10 -5.05 -21.60 -0.45 -2.55 -1 -4.65 -1.20 -4.65 -0.20 0 -0.55 1.05 -0.70 2.40 -0.60 4.55 -8.60 37.05 -10 40.75 -0.35 0.80 0.35 0.85 10.15 0.85 5.80 0 10.65 -0.15 10.75 -0.35z"/>
  <path d="M294 817.50 l0 -54.05 20.65 0.20 c17.70 0.15 21 0.30 23.60 1.05 12.65 3.70 19.45 12.20 21.20 26.55 0.75 6.15 0.70 10.20 -0.25 15.40 -1.95 11.30 -6.85 17.90 -15.80 21.30 l-1.35 0.50 2.15 4.65 c1.20 2.55 5.90 12.15 10.50 21.30 4.55 9.15 8.30 16.75 8.30 16.90 0 0.10 -5.05 0.15 -11.25 0.10 l-11.30 -0.15 -2.25 -5 c-1.25 -2.75 -4.10 -9.05 -6.30 -14 -2.20 -4.95 -5.15 -11.55 -6.55 -14.65 l-2.55 -5.65 -4.55 0.15 -4.50 0.15 -0.10 19.50 -0.10 19.50 -9.75 0.15 -9.80 0.10 0 -54z m39 -5.05 c2.30 -1.05 3 -1.70 4.15 -3.90 2.60 -4.70 2.75 -16.10 0.30 -20.80 -2.45 -4.70 -6.05 -5.90 -16.95 -5.65 l-6.75 0.15 -0.15 15.25 c-0.05 8.40 0 15.55 0.15 15.90 0.20 0.55 1.90 0.65 8.40 0.50 7.50 -0.15 8.30 -0.25 10.85 -1.45z"/>
  <path d="M372 871.05 c0 -0.30 1.20 -4.95 2.70 -10.40 1.50 -5.45 3.95 -14.50 5.50 -20.15 1.50 -5.65 4.65 -17.35 7 -26 2.30 -8.65 5.40 -20.15 6.80 -25.50 3.10 -11.70 5.90 -22.15 6.60 -24.40 0.35 -1.15 0.70 -1.60 1.25 -1.40 0.40 0.15 5.55 0.30 11.45 0.30 9.05 0 10.70 0.10 10.70 0.75 0 0.60 4.60 18.25 10.50 40 3.50 13.15 8.40 31.25 12.75 47.25 2.60 9.50 4.85 17.85 5.05 18.65 l0.30 1.35 -10.50 0 -10.50 0 -2.40 -10 -2.40 -10 -14.70 0.10 -14.75 0.15 -0.65 2.25 c-0.35 1.25 -1.45 5.50 -2.45 9.45 -0.95 3.95 -1.90 7.35 -2.05 7.60 -0.35 0.60 -20.20 0.60 -20.20 0z m50.65 -38.05 c-0.05 -0.40 -0.85 -3.80 -1.80 -7.50 -2.30 -9 -6.65 -27.45 -7.35 -31.50 -1.05 -5.60 -1.25 -5.55 -2.45 0.80 -1 5.25 -4.70 20.40 -8.35 34.05 -0.65 2.50 -1.20 4.70 -1.20 4.85 0 0.20 4.80 0.25 10.65 0.20 9.05 -0.15 10.60 -0.25 10.50 -0.90z"/>
  <path d="M472.35 871.15 c-0.20 -0.15 -0.35 -0.70 -0.35 -1.20 0 -0.50 -0.75 -3.55 -1.70 -6.80 -0.95 -3.25 -3.20 -11.40 -5.05 -18.15 -1.85 -6.75 -4 -14.50 -4.75 -17.25 -1.40 -5 -2.55 -9.25 -6.50 -23.75 -2.55 -9.45 -4.85 -17.75 -5.45 -19.75 -1.65 -5.60 -5.65 -20.80 -5.50 -20.90 0.10 -0.05 4.95 -0.05 10.80 0.05 l10.60 0.15 0.30 1.60 c0.20 0.90 1.20 5.20 2.25 9.60 7.45 31.30 9.15 38.35 10.70 45 2.05 8.75 3.95 17.60 4.85 22.40 0.35 1.85 0.80 3.35 1 3.35 0.15 0 0.50 -1.20 0.65 -2.60 0.50 -3.85 4.65 -22.75 9 -41.15 4.30 -18.15 6.25 -26.35 7.85 -33.35 l1.10 -4.90 11 0 c10.25 0 10.95 0.05 10.60 0.90 -0.20 0.45 -0.75 2.30 -1.25 4.10 -1.05 3.90 -12 44.55 -14.05 52 -0.75 2.90 -2.50 9.30 -3.85 14.25 -1.35 4.95 -3.65 13.40 -5.10 18.75 -1.40 5.35 -2.75 10.30 -3 11 -0.25 0.70 -0.70 2.55 -1.05 4.15 l-0.60 2.85 -11.10 0 c-6.10 0 -11.25 -0.15 -11.40 -0.35z"/>
  <path d="M535.30 871.10 c-0.10 -0.20 -0.25 -24.50 -0.25 -53.95 l-0.10 -53.65 26.50 0 c14.60 0 26.70 -0.05 26.95 -0.10 0.20 -0.10 0.40 4.05 0.50 9.25 l0.10 9.35 -17 0 -17 0 0 12.75 0 12.75 15.50 0.10 15.55 0.15 0 9.25 0.05 9.25 -15.55 0.15 -15.55 0.10 0 13.25 0 13.25 17.50 0.10 17.55 0.15 0 9 0.05 9 -27.30 0.10 c-15 0.05 -27.40 -0.05 -27.50 -0.25z"/>
  <path d="M604.45 871.40 c0 -0.10 -0.05 -24.40 -0.10 -54.05 l-0.10 -53.90 9.90 -0.10 c6.30 -0.05 9.85 0.10 9.85 0.40 0 0.30 0 20.45 0 44.90 l0 44.35 16.75 0 16.75 0 0 9.20 0 9.20 -26.50 0.05 c-14.55 0.05 -26.50 0 -26.55 -0.05z"/>
  <path d="M771 817.45 l0 -54.05 20.15 0.25 c21.80 0.25 22.80 0.35 28.60 3.10 4.35 2.10 7.15 4.45 9.90 8.40 4.05 5.75 5.50 10.95 6.15 21.40 0.85 14.45 -3.55 26.10 -11.90 31.55 -5.80 3.80 -10.95 4.90 -23.40 5.10 l-9.25 0.15 -0.15 19.05 -0.10 19.10 -10 0 -10 0 0 -54.05z m37.15 -3 c2.80 -0.75 5.15 -3.10 6.40 -6.35 0.95 -2.40 1.10 -3.90 1.15 -9.10 0.05 -7.50 -0.85 -11.15 -3.35 -13.65 -2.45 -2.40 -4.65 -2.95 -13.45 -3.20 l-7.90 -0.25 0 16.45 c0 9.05 0.15 16.65 0.40 16.90 0.50 0.50 14.35 -0.10 16.75 -0.80z"/>
  <path d="M865 850.70 l0 -20.80 -4.10 -9.35 c-2.25 -5.10 -8.65 -19.65 -14.30 -32.30 -5.60 -12.65 -10.30 -23.40 -10.45 -23.85 -0.25 -0.85 0.50 -0.90 11.05 -0.90 10.35 0 11.35 0.10 11.60 0.90 0.70 2 3.65 9.75 9.20 24.10 3.25 8.40 6.10 15.95 6.35 16.75 0.25 0.85 0.70 1.40 0.95 1.25 0.50 -0.25 4.70 -10.85 12.20 -30.60 l4.70 -12.35 10.90 -0.15 c8.35 -0.10 10.90 0 10.90 0.45 0 0.35 -0.45 1.60 -1 2.75 -0.50 1.20 -4.35 10.05 -8.45 19.65 -4.15 9.65 -8.65 20.10 -10.05 23.25 -1.40 3.15 -4.15 9.30 -6.05 13.60 l-3.45 7.80 0 20.30 0 20.30 -10 0 -10 0 0 -20.80z"/>
  <path d="M472.40 722.60 c-2.55 -1.35 -10.05 -5.65 -16.65 -9.60 -13.35 -7.95 -48.70 -28.85 -58 -34.35 -5.60 -3.25 -10.50 -6.15 -43.25 -25.55 -15.60 -9.20 -26.75 -15.80 -36.25 -21.35 -7.30 -4.30 -33.85 -19.95 -47 -27.75 -3.55 -2.10 -10.65 -6.30 -15.75 -9.25 -16.80 -9.80 -56.65 -33.35 -61.65 -36.40 -5.35 -3.25 -7.30 -5 -9 -8.10 l-1.10 -2 0 -179 0 -179 1.55 -2.25 c1.70 -2.40 2.80 -3.15 13.95 -9.10 9.40 -5.05 29.75 -16.10 39 -21.15 16.70 -9.15 28.65 -15.20 30.90 -15.75 4.70 -1.05 5.60 -0.65 24.85 10 4.80 2.65 14.40 7.95 21.25 11.75 6.90 3.75 14.20 7.85 16.30 9 2.05 1.20 5.15 2.90 6.85 3.75 1.70 0.85 3.10 1.80 3.10 2.10 0 0.35 -1 2.85 -2.20 5.60 -1.20 2.80 -2.35 5.45 -2.50 6 -0.35 1.05 -0.15 1.05 -7.05 -0.85 -2.45 -0.65 -5.40 -1.40 -6.50 -1.55 -2 -0.35 -4.80 -1.75 -18.25 -9.15 -12.55 -6.90 -33.45 -18.15 -33.70 -18.15 -0.10 0 -4.35 2.20 -9.40 4.90 -5.05 2.70 -12.05 6.45 -15.65 8.35 -9.95 5.25 -17 9.05 -28.85 15.70 -5.95 3.30 -11.05 6.05 -11.35 6.05 -1.05 0 -0.50 0.75 1.60 2.10 1.15 0.70 8.65 5.30 16.60 10.20 8 4.90 15.85 9.70 17.50 10.70 2.70 1.65 3.05 2.05 3.25 3.80 0.70 4.90 5.40 12.25 11.25 17.55 3.55 3.20 6 4.85 21.90 14.90 l6.35 4 0 84.25 c0 46.35 0.15 84.75 0.30 85.35 0.25 1 -0.50 1.65 -6.35 5.40 -3.70 2.40 -7.30 4.75 -8 5.25 -0.75 0.55 -1.50 0.80 -1.65 0.65 -0.20 -0.20 -0.30 -41.40 -0.30 -91.55 0.05 -64.75 -0.10 -91.35 -0.50 -91.85 -0.65 -0.75 -6.80 -4.65 -35.50 -22.35 -20.65 -12.75 -29.95 -18.40 -30.75 -18.70 -0.65 -0.30 -0.75 15.80 -0.75 152 0 83.75 0.10 152.30 0.20 152.30 0.10 0 1 -1.65 1.95 -3.70 3.25 -6.85 8.85 -14.25 15.90 -21.10 9.10 -8.75 18.80 -15.35 44.20 -29.95 12.65 -7.30 41.65 -24.90 50.40 -30.60 3.60 -2.35 3.65 -2.40 2.85 -6.70 -0.30 -1.50 -2 -11.60 -3.80 -22.45 -1.80 -10.85 -3.90 -23.55 -4.70 -28.20 -0.75 -4.70 -1.30 -8.75 -1.15 -9.10 0.25 -0.65 3.70 -1.35 10.90 -2.20 17.85 -2.15 23.95 -3 24.45 -3.50 0.65 -0.65 -1.95 -4.75 -6.75 -10.75 -12.95 -16.15 -20.50 -34.25 -22.95 -54.75 -1.20 -10.20 0.20 -20.35 4.30 -30.45 0.95 -2.35 1.70 -4.40 1.70 -4.60 0 -0.15 -2.20 -1.25 -4.85 -2.45 -5.65 -2.40 -18.40 -9 -24.65 -12.65 -9.50 -5.60 -19.55 -13.30 -24.75 -18.95 -8.90 -9.80 -8.25 -16.50 2 -19.90 7.80 -2.60 17.30 -3.50 35.95 -3.50 15.80 0 27.85 0.90 40.70 2.95 3.20 0.50 2.70 1.25 5.60 -9.05 6.40 -23.10 22.90 -62.10 34.40 -81.40 6.45 -10.75 12.60 -18.30 17.60 -21.50 11.05 -7.10 28.70 -5.20 63.25 6.75 6.75 2.35 14.60 5.05 17.40 6.05 7.05 2.45 20.50 6.70 21.15 6.70 0.35 0 2 -0.65 3.75 -1.50 3.35 -1.55 11.95 -3.90 19.95 -5.50 4.10 -0.80 9.10 -1.40 17.95 -2.20 7.85 -0.70 17.80 2.85 22.55 8.05 6 6.55 9.55 16.70 12.50 35.65 0.25 1.50 0.90 5.80 1.50 9.50 1.30 8.20 2.60 18 4.25 31.25 0.70 5.50 1.60 12.50 2 15.50 0.40 3.05 0.95 7.40 1.25 9.75 0.25 2.35 1.05 8.75 1.75 14.25 0.70 5.50 1.25 11.30 1.25 12.90 l0 2.85 -9.60 0 c-8.30 0 -18.55 -0.65 -28.05 -1.80 -4.75 -0.55 -17.05 -2.20 -20.10 -2.70 -4.15 -0.70 -80.05 -13.20 -87.75 -14.45 -8.50 -1.40 -19.15 -3.30 -25.60 -4.55 -3 -0.55 -7.70 -1.45 -10.50 -1.95 -2.85 -0.55 -6.85 -1.35 -8.90 -1.80 -6.10 -1.30 -6.75 -1.40 -6.50 -1.10 0.25 0.25 38.15 12.20 45.50 14.35 2.05 0.60 5.55 1.60 7.75 2.25 34.90 10.45 75.40 19.70 103.75 23.75 15.80 2.20 26.05 3 40.30 3 13.95 0 11.50 -0.60 26.30 6.80 23.90 11.95 44 25.75 49.45 33.90 2.10 3.15 2.40 4.95 1.20 7.25 -2.30 4.50 -12 8.65 -27.25 11.70 -5.75 1.15 -8 1.55 -17.50 2.90 -7.65 1.05 -16.65 1.55 -30.25 1.60 -9 0.05 -14.65 0.30 -14.85 0.60 -0.20 0.30 -0.40 1.30 -0.40 2.30 0 1.80 -2.45 16.50 -4.50 27.20 -0.60 3.05 -1.30 6.85 -1.55 8.50 -1.80 10.80 -4.60 19.50 -11.65 36.35 -5.60 13.40 -14.15 29.75 -22.10 42.15 -5.80 9.05 -7.85 12.60 -7.45 13.20 0.15 0.25 2 0.85 4.15 1.35 5.50 1.20 16.75 4.65 17.40 5.35 0.30 0.35 0.80 4.45 1.15 9.35 0.85 13.40 0.85 13.30 -1.40 16.30 -2.80 3.70 -7.75 11.20 -8.45 12.90 -0.35 0.75 -0.50 1.90 -0.30 2.50 0.15 0.55 3.05 3.85 6.40 7.30 4.25 4.35 7.30 8 9.90 12 3.55 5.40 11.85 20.80 12.65 23.45 0.30 0.95 -0.10 1.65 -2.55 4.10 l-2.90 2.95 -3.20 0 c-1.75 0 -4.40 0.35 -5.90 0.80 -9.10 2.65 -32.30 17.95 -72.20 47.65 -17.50 13 -37.90 27.95 -51.50 37.75 -12.90 9.30 -25.70 18.80 -25.85 19.25 -0.10 0.30 10.50 6.65 11.60 6.95 0.35 0.10 4.15 -2.55 8.55 -5.80 7.50 -5.60 23.10 -16.85 31.95 -23.10 2.20 -1.55 6.60 -4.70 9.75 -7.05 3.15 -2.35 10.50 -7.70 16.25 -11.95 5.80 -4.25 14.35 -10.55 19 -14 20.85 -15.50 42.80 -30.55 50.10 -34.35 7 -3.60 10.10 -3.45 13.45 0.75 1.05 1.30 1.90 2.40 1.95 2.50 0.05 0.05 3.35 -3.05 7.30 -6.90 3.95 -3.90 10.05 -9.55 13.55 -12.65 6.30 -5.50 6.40 -5.55 5.45 -6.55 -6.65 -7.45 -11.85 -15.25 -17 -25.40 -15.05 -29.75 -18.10 -64.85 -8.30 -97.05 8.70 -28.75 27.10 -53.35 52.10 -69.70 15.95 -10.45 31.05 -16.05 52.90 -19.75 5.35 -0.85 28 -0.90 33.50 0 15.50 2.50 26.30 5.85 39 12.05 20.55 10.10 37.55 24.85 50.40 43.90 10.65 15.75 17.15 32.40 20.70 53.15 1.25 7.35 1.25 29.35 -0.05 37 -2.65 16.10 -7 29.60 -13.40 41.50 -12.95 24.25 -32.90 43.80 -56.90 55.80 -27.05 13.45 -57.05 16.65 -86.25 9.20 -12.35 -3.20 -25.05 -8.35 -35 -14.25 l-5.40 -3.20 -3.80 3.15 c-3.45 2.90 -13.95 13.95 -15.85 16.70 -0.40 0.60 -0.60 1.30 -0.45 1.60 0.15 0.25 1.90 1.45 3.90 2.60 4.80 2.75 9.25 7.30 11.25 11.40 2.35 4.80 3.75 11 3.50 15.25 -0.40 5.70 -2.20 8.35 -8.20 11.95 -1.70 1 -3.25 2.15 -3.40 2.60 -0.15 0.45 -0.30 2.40 -0.30 4.40 0 8.80 -4.35 16.35 -12.50 21.60 -1.90 1.20 -3.70 2.65 -4 3.20 -0.25 0.50 -0.50 2.10 -0.50 3.50 0 9.60 -8.50 20.95 -14.80 19.75 -2.10 -0.35 -18.20 -6.20 -20.55 -7.45 -4.40 -2.25 0.10 1.50 8.80 7.40 4.95 3.35 7.50 6.05 7.55 7.80 0 1.75 -2.90 7.65 -5.60 11.30 -2.55 3.40 -7.30 7.25 -11.35 9.10 -5.90 2.75 -20.85 1.75 -38.95 -2.55 l-6.70 -1.55 -13.55 6.80 c-7.50 3.80 -14.35 7.10 -15.30 7.40 -3.30 1 -5.30 0.60 -10.15 -1.90z m116.60 -66.55 c0 -0.70 -11 -6 -18.75 -9.10 -11.60 -4.60 -17.50 -5.95 -17.50 -3.95 0 1 3.80 2.80 13.50 6.55 16 6.10 22.75 8.05 22.75 6.50z m9.75 -39.35 c-0.65 -1.60 -1.70 -3.45 -2.25 -4.05 -1.70 -1.75 -12.55 -4.90 -27.15 -7.90 -5.55 -1.15 -12.40 -1.15 -16.20 -0.05 -1.75 0.50 -3.15 1.10 -3.15 1.30 0 0.20 1.40 0.50 3.15 0.70 8.35 0.85 25.60 5.45 39.90 10.70 3.70 1.35 6.75 2.40 6.80 2.40 0.05 -0.05 -0.40 -1.45 -1.10 -3.10z m105.30 -47.75 c23.45 -2.35 45.10 -12.15 62.50 -28.25 14.85 -13.75 24.95 -30.20 30.65 -50 15.80 -55.20 -15.30 -114.30 -69.75 -132.40 -27.50 -9.15 -55.70 -7.15 -81.70 5.80 -13.10 6.50 -23.70 14.70 -32.60 25.10 -15.45 18.10 -24.65 40.10 -26.70 64.05 -1.95 22.85 4.95 48.50 18.30 68.30 17.45 25.80 45.45 43.20 75.50 46.90 2.50 0.30 5.05 0.65 5.75 0.75 2.80 0.40 13.20 0.25 18.05 -0.25z m-210.20 -35.30 c-0.30 -9.35 -1.55 -16 -4.05 -21.35 -1.95 -4.25 -6.20 -10.20 -9.15 -12.85 -2.45 -2.20 -9.65 -7.10 -9.95 -6.80 -0.45 0.40 1.70 5.15 7.70 17.20 4.95 9.85 12.35 25.85 14.15 30.55 0.25 0.60 0.70 1.10 1 1.10 0.45 0 0.50 -2.10 0.30 -7.85z m6.65 -69.75 c1.85 -0.70 2.95 -1.85 4.30 -4.50 1.70 -3.35 2.15 -5.95 2.70 -15.15 0.50 -9.40 1.05 -11 4.75 -14.05 2.35 -2 3.25 -4.20 2.25 -5.45 -0.90 -1.05 -6.10 -2.60 -12.75 -3.75 -8.75 -1.55 -12.20 -2.40 -15.05 -3.80 -2.80 -1.30 -4.05 -3.25 -3.50 -5.35 0.50 -2.05 2.40 -2.45 13.30 -2.90 14.75 -0.55 20.50 -1.55 20.50 -3.45 0 -0.50 -2.40 -3.60 -5.30 -6.85 -11.05 -12.40 -17.25 -22.40 -14.50 -23.45 0.45 -0.15 3.35 0.15 6.45 0.70 8.60 1.60 23.75 3.10 30.80 3.10 3.80 0 7.15 -1.20 7.70 -2.75 0.50 -1.25 -6.75 -37.50 -7.95 -39.85 -1.45 -2.75 -0.35 -2.45 -31.20 -8.45 -28.95 -5.55 -46.90 -10.20 -69 -17.75 -6.20 -2.10 -12.40 -3.95 -13.80 -4.05 -2.30 -0.20 -2.65 -0.10 -3.60 1.10 -1.60 2 -3 6.25 -3.90 11.65 -0.65 3.85 -0.75 6.80 -0.45 14.35 0.40 11.80 0 13.20 -4.05 13.95 -2.25 0.45 -5.70 -0.35 -16.25 -3.75 -6.80 -2.20 -10 -3.45 -11 -4.40 -1.40 -1.30 -2.35 -3.35 -13.20 -28.30 -6.25 -14.40 -7.95 -17.50 -11.55 -21.10 -3.30 -3.35 -9.20 -6.65 -11.85 -6.65 -3.65 0 -7.90 3.75 -9.90 8.80 -1.70 4.30 -1.90 11.85 -0.45 18.95 1.35 6.95 4.45 16.30 7.30 22.15 1.95 4 2.95 5.35 7.35 9.75 3.20 3.25 6.85 6.30 9.85 8.25 9 5.85 8.35 5.25 8.95 8.20 0.30 1.45 1.35 6.70 2.35 11.65 4.50 22.75 5.15 25.40 6.60 26.65 3.45 2.90 17.30 12.25 39.05 26.35 25.85 16.70 27.70 17.95 39.20 26.40 9.75 7.20 12.70 8.95 17.35 10.55 10.10 3.35 23.95 4.90 28.50 3.20z"/>
  <path d="M740.30 541.40 c-2.85 -0.80 -6.40 -4.50 -7.75 -8.10 -2.85 -7.75 -2.50 -20.45 0.70 -26.85 2.60 -5.15 8.80 -7.70 15.55 -6.45 6.10 1.15 9.20 5 10.50 12.95 1.80 11 -0.35 21.25 -5.30 25.75 -3.20 2.90 -8.75 4 -13.70 2.70z m7.45 -7.40 c2.65 -1.65 2.95 -2.85 3.15 -12.45 0.15 -7.15 0.05 -9.05 -0.65 -10.85 -2.20 -5.85 -8.80 -4.70 -10.50 1.80 -1 3.80 -1 13.50 0.05 17.05 1.50 5 4.40 6.65 7.95 4.45z"/>
  <path d="M637.25 541 c-4.10 -1.05 -6.05 -2.80 -8 -7.25 -3 -6.80 -2.90 -21.55 0.15 -27.60 2.80 -5.35 9.35 -8.05 15.95 -6.50 7.60 1.80 10.65 7.55 10.65 19.90 0 9.45 -1.50 14.45 -5.50 18.45 -2.95 2.95 -8.50 4.25 -13.25 3z m7.45 -7.95 c2.30 -2 2.55 -3.35 2.55 -12.55 0 -9.90 -0.50 -11.80 -3.25 -13.25 -1.90 -1 -4.45 -0.70 -5.65 0.65 -2.10 2.35 -2.55 4.55 -2.55 12.85 0 6.20 0.20 8.40 0.80 9.75 0.85 1.85 2.15 3.20 3.35 3.60 1.20 0.35 3.75 -0.20 4.75 -1.05z"/>
  <path d="M710.60 541.15 c-2.45 -0.45 -2.65 -2 -2.50 -17.15 0.10 -7.70 0.10 -14 0 -14 -0.05 0 -1.05 0.45 -2.15 1.05 -1.10 0.55 -2.60 0.95 -3.30 0.85 -1.85 -0.20 -3.35 -2.40 -2.95 -4.30 0.30 -1.30 1.15 -1.90 6 -4.55 6.30 -3.40 8.65 -3.90 10 -1.95 0.70 0.95 0.80 3.60 0.80 18.90 0 9.75 -0.15 18.25 -0.30 18.85 -0.25 1 -3 2.75 -4.05 2.60 -0.20 -0.05 -0.90 -0.20 -1.55 -0.30z"/>
  <path d="M677.05 539.95 c-1.30 -1.40 -1.70 -6.40 -1.45 -19.85 0.05 -5.80 0.05 -10.55 -0.10 -10.45 -0.15 0.10 -1.35 0.65 -2.75 1.30 -2.30 1.05 -2.60 1.05 -3.75 0.35 -1.75 -1 -2.35 -3.40 -1.35 -4.95 0.90 -1.40 11.35 -6.85 13.10 -6.85 1.45 0 2.75 1.25 2.75 2.65 0.10 10.10 -0.10 36.50 -0.30 37 -0.35 0.90 -2.40 1.85 -3.95 1.85 -0.65 0 -1.65 -0.45 -2.20 -1.05z"/>
  <path d="M626.70 485.20 c-4.20 -1.50 -6.80 -5.50 -8.20 -12.55 -0.85 -4.20 -0.40 -16.05 0.70 -19.50 2.30 -7.30 9.35 -11.25 17.05 -9.70 6.10 1.25 8.95 4.05 10.70 10.55 1.95 6.95 1.15 18.80 -1.55 24.15 -1.60 3.15 -4.70 6.20 -7.25 7.05 -2.90 1 -8.70 1 -11.45 0z m9.30 -7.20 c2.35 -1.70 3 -4.60 3 -13.70 0 -6.70 -0.15 -8.40 -0.95 -10.05 -1.20 -2.65 -2.30 -3.50 -4.55 -3.50 -2.50 0 -4.40 1.40 -5.65 4.15 -0.95 2.10 -1.10 3.25 -1.10 10.35 0 7.35 0.10 8.20 1.15 10.30 0.65 1.30 1.65 2.55 2.25 2.85 1.75 0.85 4.35 0.70 5.85 -0.40z"/>
  <path d="M708.25 485.65 c-7.90 -1.75 -11.25 -6.30 -12.40 -16.80 -1.05 -9.55 0.90 -18.20 4.90 -22.10 5.30 -5.10 16.20 -5 20.90 0.20 3.05 3.35 4.60 10.25 4.20 18.40 -0.50 11.60 -4.55 18.15 -12.20 19.95 -3 0.70 -3.65 0.75 -5.40 0.35z m5.20 -7.90 c0.80 -0.40 1.80 -1.50 2.25 -2.50 2 -4.20 2.05 -17.70 0.10 -21.80 -1.50 -3.15 -5.50 -3.95 -8.25 -1.65 -2.40 2 -3.30 5.65 -3.30 13.45 0 7.25 0.80 10.45 3.10 12.25 1.50 1.20 4.10 1.30 6.10 0.25z"/>
  <path d="M671.60 485.15 c-2.50 -0.50 -2.65 -1.35 -2.50 -16.85 0.10 -7.85 0.05 -14.30 -0.10 -14.30 -0.15 0 -1.15 0.60 -2.25 1.25 -3.80 2.35 -6.95 0.95 -6.65 -2.95 l0.15 -2 6.25 -3.40 c6.60 -3.55 8.70 -4.10 10.15 -2.50 0.75 0.85 0.85 2.95 0.85 19.95 0 17.70 -0.05 19.05 -0.90 19.80 -1 0.95 -3.25 1.35 -5 1z"/>
  <path d="M751.55 483.70 c-1 -1.30 -1.05 -1.90 -1.05 -16 0 -8.10 -0.10 -14.70 -0.25 -14.70 -0.10 0 -1.60 0.70 -3.25 1.55 -2.80 1.40 -3.15 1.50 -4.20 0.80 -0.65 -0.45 -1.45 -1.50 -1.80 -2.40 -0.55 -1.35 -0.55 -1.80 0.05 -2.85 0.40 -0.70 1.05 -1.45 1.45 -1.65 0.40 -0.25 3 -1.65 5.80 -3.20 5.60 -3.05 7.95 -3.50 9.70 -1.75 0.95 0.95 1 1.65 1 19.50 0 12.45 -0.20 18.85 -0.55 19.65 -1.15 2.60 -5.25 3.15 -6.90 1.05z"/>
  <path d="M633.15 427.70 c-3.90 -1.90 -6.45 -6 -7.60 -12.40 -1.10 -5.95 -0.30 -15.85 1.60 -20.40 3.45 -8.20 13.40 -11.15 20.80 -6.20 4.90 3.35 6.85 9.30 6.40 20.05 -0.40 8.70 -1.85 13.10 -5.60 16.85 -3.60 3.55 -10.60 4.50 -15.60 2.10z m9.25 -6.50 c0.60 -0.40 1.60 -1.70 2.20 -2.85 1 -1.90 1.10 -2.85 1.15 -9.35 0 -4 -0.20 -8.30 -0.40 -9.60 -1.15 -6.70 -7.75 -7.85 -10.35 -1.80 -0.95 2.25 -1.10 3.45 -1.10 10.35 0 8.60 0.55 11.15 3 13.05 1.50 1.20 3.95 1.30 5.50 0.20z"/>
  <path d="M706.60 428 c-5.25 -1.50 -8.30 -5.40 -9.85 -12.75 -1.45 -6.85 -0.65 -17.60 1.70 -22.10 1.30 -2.65 5.05 -5.95 7.35 -6.60 1.10 -0.30 3.75 -0.55 6 -0.55 5.30 0 8.65 1.60 11.05 5.15 2.55 3.80 2.90 5.70 2.90 14.85 0 7.30 -0.15 8.65 -1.15 11.60 -2.35 6.75 -5.50 9.80 -11.30 10.85 -3.50 0.65 -2.80 0.70 -6.70 -0.45z m7.40 -7.60 c2.40 -1.65 3.10 -4.10 3.35 -11.70 0.40 -10.25 -1 -14.45 -5.15 -15.50 -1.95 -0.50 -4.70 1.15 -5.90 3.60 -2.20 4.35 -2.25 16.80 -0.05 21.35 1.55 3.30 4.80 4.25 7.75 2.25z"/>
  <path d="M749.30 427.75 l-1.30 -1.20 0 -14.75 0 -14.75 -2.35 1.20 c-3.65 1.80 -4.35 1.90 -5.80 0.75 -1.70 -1.35 -2.25 -3.75 -1.05 -5.05 1.10 -1.25 11.50 -6.75 13.55 -7.15 1.25 -0.30 1.80 -0.15 2.60 0.65 1 1 1.05 1.50 1.05 20 l0 18.95 -1.55 1.30 c-1.90 1.65 -3.45 1.65 -5.15 0.05z"/>
  <path d="M675 427 c-0.95 -0.95 -1 -1.65 -1 -16 0 -8.25 -0.10 -15 -0.25 -15 -0.15 0 -1.15 0.45 -2.25 1 -2.70 1.35 -3.70 1.25 -5.20 -0.55 -1.55 -1.80 -1.65 -3.15 -0.35 -4.30 1.85 -1.55 11.25 -6.15 12.65 -6.15 0.75 0 1.85 0.45 2.40 1 0.95 0.95 1 1.65 1 19.25 0 19.20 -0.15 20.65 -2.25 21.45 -1.60 0.60 -3.75 0.30 -4.75 -0.70z"/>
  <path d="M798 363.90 c-3.90 -3.65 -12 -10.45 -12.85 -10.75 -0.50 -0.20 -0.65 -8.50 -0.65 -39.20 0 -21.40 -0.15 -38.95 -0.30 -38.95 -0.15 0 -2.70 1.45 -5.65 3.20 -4.55 2.70 -15.15 8.85 -25.05 14.55 -3.80 2.15 -18.15 10.45 -27.50 15.90 -4.25 2.50 -10.35 6 -13.50 7.80 l-5.75 3.30 -13.10 0.05 c-7.25 0.05 -13.15 0 -13.15 -0.05 0 -0.10 0.70 -1.60 1.50 -3.35 2.20 -4.65 2.75 -8.50 2 -13.55 -0.30 -2.25 -0.80 -4.50 -1.10 -5 -0.25 -0.50 -0.35 -1.05 -0.20 -1.20 0.45 -0.45 7.70 2.25 13.10 4.90 l5.10 2.50 7.65 -4.45 c9.10 -5.30 29.35 -17.05 39.20 -22.85 24.05 -14.10 29.50 -17.30 29.60 -17.65 0.10 -0.20 -1.85 -1.40 -4.25 -2.75 -2.40 -1.30 -7.15 -3.95 -10.60 -5.90 -7.90 -4.50 -50.45 -28.25 -53.65 -29.95 l-2.35 -1.25 -4.40 2.30 c-2.40 1.30 -9.55 5.10 -15.85 8.45 -6.35 3.35 -17.25 9.15 -24.25 12.85 -7 3.70 -15.35 8.15 -18.50 9.90 -3.15 1.70 -6.95 3.70 -8.35 4.45 l-2.65 1.30 -7.75 -3.85 c-4.25 -2.15 -7.85 -4.25 -8 -4.70 -0.35 -1.05 0.55 -3.45 1.30 -3.45 0.30 0 2.05 -0.85 3.85 -1.95 1.85 -1.05 9 -4.90 15.85 -8.55 6.90 -3.65 12.95 -6.90 13.50 -7.25 0.55 -0.35 7.10 -3.85 14.50 -7.75 7.45 -3.90 15.65 -8.30 18.25 -9.75 2.60 -1.45 8 -4.40 12 -6.55 l7.25 -3.95 4.25 0 4.25 0 7.75 4.45 c6.80 3.90 32.95 18.70 58.75 33.20 4.70 2.65 10.85 6.10 13.75 7.65 6.15 3.35 8.55 5.45 9.40 8.25 0.45 1.60 0.60 15.10 0.60 57.40 0 30.40 -0.15 55.30 -0.35 55.30 -0.25 -0.05 -1.85 -1.40 -3.65 -3.10z"/>
 </g>
</svg>